<svg width="797" height="104" viewBox="0 0 797 104" fill="none" xmlns="http://www.w3.org/2000/svg">
<path d="M5.59309 84.368H0.217094V81.2H14.8571V84.368H9.48109V98H5.59309V84.368ZM21.2368 84.896C23.2368 84.896 24.7728 85.376 25.8448 86.336C26.9168 87.28 27.4528 88.712 27.4528 90.632V98H23.9488V96.392C23.2448 97.592 21.9328 98.192 20.0128 98.192C19.0208 98.192 18.1568 98.024 17.4208 97.688C16.7008 97.352 16.1488 96.888 15.7648 96.296C15.3808 95.704 15.1888 95.032 15.1888 94.28C15.1888 93.08 15.6368 92.136 16.5328 91.448C17.4448 90.76 18.8448 90.416 20.7328 90.416H23.7088C23.7088 89.6 23.4608 88.976 22.9648 88.544C22.4688 88.096 21.7248 87.872 20.7328 87.872C20.0448 87.872 19.3648 87.984 18.6928 88.208C18.0368 88.416 17.4768 88.704 17.0128 89.072L15.6688 86.456C16.3728 85.96 17.2128 85.576 18.1888 85.304C19.1808 85.032 20.1968 84.896 21.2368 84.896ZM20.9488 95.672C21.5888 95.672 22.1568 95.528 22.6528 95.24C23.1488 94.936 23.5008 94.496 23.7088 93.92V92.6H21.1408C19.6048 92.6 18.8368 93.104 18.8368 94.112C18.8368 94.592 19.0208 94.976 19.3888 95.264C19.7728 95.536 20.2928 95.672 20.9488 95.672ZM36.3853 92.936L34.5853 94.712V98H30.8413V80.192H34.5853V90.272L40.0573 85.088H44.5213L39.1453 90.56L45.0013 98H40.4653L36.3853 92.936ZM58.7705 91.592C58.7705 91.64 58.7465 91.976 58.6985 92.6H48.9305C49.1065 93.4 49.5225 94.032 50.1785 94.496C50.8345 94.96 51.6505 95.192 52.6265 95.192C53.2985 95.192 53.8905 95.096 54.4025 94.904C54.9305 94.696 55.4185 94.376 55.8665 93.944L57.8585 96.104C56.6425 97.496 54.8665 98.192 52.5305 98.192C51.0745 98.192 49.7865 97.912 48.6665 97.352C47.5465 96.776 46.6825 95.984 46.0745 94.976C45.4665 93.968 45.1625 92.824 45.1625 91.544C45.1625 90.28 45.4585 89.144 46.0505 88.136C46.6585 87.112 47.4825 86.32 48.5225 85.76C49.5785 85.184 50.7545 84.896 52.0505 84.896C53.3145 84.896 54.4585 85.168 55.4825 85.712C56.5065 86.256 57.3065 87.04 57.8825 88.064C58.4745 89.072 58.7705 90.248 58.7705 91.592ZM52.0745 87.728C51.2265 87.728 50.5145 87.968 49.9385 88.448C49.3625 88.928 49.0105 89.584 48.8825 90.416H55.2425C55.1145 89.6 54.7625 88.952 54.1865 88.472C53.6105 87.976 52.9065 87.728 52.0745 87.728ZM73.268 84.896C75.268 84.896 76.804 85.376 77.876 86.336C78.948 87.28 79.484 88.712 79.484 90.632V98H75.98V96.392C75.276 97.592 73.964 98.192 72.044 98.192C71.052 98.192 70.188 98.024 69.452 97.688C68.732 97.352 68.18 96.888 67.796 96.296C67.412 95.704 67.22 95.032 67.22 94.28C67.22 93.08 67.668 92.136 68.564 91.448C69.476 90.76 70.876 90.416 72.764 90.416H75.74C75.74 89.6 75.492 88.976 74.996 88.544C74.5 88.096 73.756 87.872 72.764 87.872C72.076 87.872 71.396 87.984 70.724 88.208C70.068 88.416 69.508 88.704 69.044 89.072L67.7 86.456C68.404 85.96 69.244 85.576 70.22 85.304C71.212 85.032 72.228 84.896 73.268 84.896ZM72.98 95.672C73.62 95.672 74.188 95.528 74.684 95.24C75.18 94.936 75.532 94.496 75.74 93.92V92.6H73.172C71.636 92.6 70.868 93.104 70.868 94.112C70.868 94.592 71.052 94.976 71.42 95.264C71.804 95.536 72.324 95.672 72.98 95.672ZM90.7205 84.896C92.3205 84.896 93.6085 85.376 94.5845 86.336C95.5765 87.296 96.0725 88.72 96.0725 90.608V98H92.3285V91.184C92.3285 90.16 92.1045 89.4 91.6565 88.904C91.2085 88.392 90.5605 88.136 89.7125 88.136C88.7685 88.136 88.0165 88.432 87.4565 89.024C86.8965 89.6 86.6165 90.464 86.6165 91.616V98H82.8725V85.088H86.4485V86.6C86.9445 86.056 87.5605 85.64 88.2965 85.352C89.0325 85.048 89.8405 84.896 90.7205 84.896ZM106.263 85.088H110.007V98H106.263V85.088ZM108.135 83.288C107.447 83.288 106.887 83.088 106.455 82.688C106.023 82.288 105.807 81.792 105.807 81.2C105.807 80.608 106.023 80.112 106.455 79.712C106.887 79.312 107.447 79.112 108.135 79.112C108.823 79.112 109.383 79.304 109.815 79.688C110.247 80.072 110.463 80.552 110.463 81.128C110.463 81.752 110.247 82.272 109.815 82.688C109.383 83.088 108.823 83.288 108.135 83.288ZM130.018 84.896C131.634 84.896 132.914 85.376 133.858 86.336C134.818 87.28 135.298 88.704 135.298 90.608V98H131.554V91.184C131.554 90.16 131.338 89.4 130.906 88.904C130.49 88.392 129.89 88.136 129.106 88.136C128.226 88.136 127.53 88.424 127.018 89C126.506 89.56 126.25 90.4 126.25 91.52V98H122.506V91.184C122.506 89.152 121.69 88.136 120.058 88.136C119.194 88.136 118.506 88.424 117.994 89C117.482 89.56 117.226 90.4 117.226 91.52V98H113.482V85.088H117.058V86.576C117.538 86.032 118.122 85.616 118.81 85.328C119.514 85.04 120.282 84.896 121.114 84.896C122.026 84.896 122.85 85.08 123.586 85.448C124.322 85.8 124.914 86.32 125.362 87.008C125.89 86.336 126.554 85.816 127.354 85.448C128.17 85.08 129.058 84.896 130.018 84.896ZM143.862 84.896C145.862 84.896 147.398 85.376 148.47 86.336C149.542 87.28 150.078 88.712 150.078 90.632V98H146.574V96.392C145.87 97.592 144.558 98.192 142.638 98.192C141.646 98.192 140.782 98.024 140.046 97.688C139.326 97.352 138.774 96.888 138.39 96.296C138.006 95.704 137.814 95.032 137.814 94.28C137.814 93.08 138.262 92.136 139.158 91.448C140.07 90.76 141.47 90.416 143.358 90.416H146.334C146.334 89.6 146.086 88.976 145.59 88.544C145.094 88.096 144.35 87.872 143.358 87.872C142.67 87.872 141.99 87.984 141.318 88.208C140.662 88.416 140.102 88.704 139.638 89.072L138.294 86.456C138.998 85.96 139.838 85.576 140.814 85.304C141.806 85.032 142.822 84.896 143.862 84.896ZM143.574 95.672C144.214 95.672 144.782 95.528 145.278 95.24C145.774 94.936 146.126 94.496 146.334 93.92V92.6H143.766C142.23 92.6 141.462 93.104 141.462 94.112C141.462 94.592 141.646 94.976 142.014 95.264C142.398 95.536 142.918 95.672 143.574 95.672ZM166.927 85.088V95.84C166.927 98.208 166.311 99.968 165.079 101.12C163.847 102.272 162.047 102.848 159.679 102.848C158.431 102.848 157.247 102.696 156.127 102.392C155.007 102.088 154.079 101.648 153.343 101.072L154.831 98.384C155.375 98.832 156.063 99.184 156.895 99.44C157.727 99.712 158.559 99.848 159.391 99.848C160.687 99.848 161.639 99.552 162.247 98.96C162.871 98.384 163.183 97.504 163.183 96.32V95.768C162.207 96.84 160.847 97.376 159.103 97.376C157.919 97.376 156.831 97.12 155.839 96.608C154.863 96.08 154.087 95.344 153.511 94.4C152.935 93.456 152.647 92.368 152.647 91.136C152.647 89.904 152.935 88.816 153.511 87.872C154.087 86.928 154.863 86.2 155.839 85.688C156.831 85.16 157.919 84.896 159.103 84.896C160.975 84.896 162.399 85.512 163.375 86.744V85.088H166.927ZM159.847 94.304C160.839 94.304 161.647 94.016 162.271 93.44C162.911 92.848 163.231 92.08 163.231 91.136C163.231 90.192 162.911 89.432 162.271 88.856C161.647 88.264 160.839 87.968 159.847 87.968C158.855 87.968 158.039 88.264 157.399 88.856C156.759 89.432 156.439 90.192 156.439 91.136C156.439 92.08 156.759 92.848 157.399 93.44C158.039 94.016 158.855 94.304 159.847 94.304ZM183.06 91.592C183.06 91.64 183.036 91.976 182.988 92.6H173.22C173.396 93.4 173.812 94.032 174.468 94.496C175.124 94.96 175.94 95.192 176.916 95.192C177.588 95.192 178.18 95.096 178.692 94.904C179.22 94.696 179.708 94.376 180.156 93.944L182.148 96.104C180.932 97.496 179.156 98.192 176.82 98.192C175.364 98.192 174.076 97.912 172.956 97.352C171.836 96.776 170.972 95.984 170.364 94.976C169.756 93.968 169.452 92.824 169.452 91.544C169.452 90.28 169.748 89.144 170.34 88.136C170.948 87.112 171.772 86.32 172.812 85.76C173.868 85.184 175.044 84.896 176.34 84.896C177.604 84.896 178.748 85.168 179.772 85.712C180.796 86.256 181.596 87.04 182.172 88.064C182.764 89.072 183.06 90.248 183.06 91.592ZM176.364 87.728C175.516 87.728 174.804 87.968 174.228 88.448C173.652 88.928 173.3 89.584 173.172 90.416H179.532C179.404 89.6 179.052 88.952 178.476 88.472C177.9 87.976 177.196 87.728 176.364 87.728ZM198.493 98.192C197.133 98.192 195.909 97.912 194.821 97.352C193.749 96.776 192.909 95.984 192.301 94.976C191.693 93.968 191.389 92.824 191.389 91.544C191.389 90.264 191.693 89.12 192.301 88.112C192.909 87.104 193.749 86.32 194.821 85.76C195.909 85.184 197.133 84.896 198.493 84.896C199.853 84.896 201.069 85.184 202.141 85.76C203.213 86.32 204.053 87.104 204.661 88.112C205.269 89.12 205.573 90.264 205.573 91.544C205.573 92.824 205.269 93.968 204.661 94.976C204.053 95.984 203.213 96.776 202.141 97.352C201.069 97.912 199.853 98.192 198.493 98.192ZM198.493 95.12C199.453 95.12 200.237 94.8 200.845 94.16C201.469 93.504 201.781 92.632 201.781 91.544C201.781 90.456 201.469 89.592 200.845 88.952C200.237 88.296 199.453 87.968 198.493 87.968C197.533 87.968 196.741 88.296 196.117 88.952C195.493 89.592 195.181 90.456 195.181 91.544C195.181 92.632 195.493 93.504 196.117 94.16C196.741 94.8 197.533 95.12 198.493 95.12ZM212.18 85.376H215.492V88.256H212.276V98H208.532V88.256H206.54V85.376H208.532V84.8C208.532 83.328 208.964 82.16 209.828 81.296C210.708 80.432 211.94 80 213.524 80C214.084 80 214.612 80.064 215.108 80.192C215.62 80.304 216.044 80.472 216.38 80.696L215.396 83.408C214.964 83.104 214.46 82.952 213.884 82.952C212.748 82.952 212.18 83.576 212.18 84.824V85.376ZM236.97 85.088L231.138 98.792C230.546 100.28 229.81 101.328 228.93 101.936C228.066 102.544 227.018 102.848 225.786 102.848C225.114 102.848 224.45 102.744 223.794 102.536C223.138 102.328 222.602 102.04 222.186 101.672L223.554 99.008C223.842 99.264 224.17 99.464 224.538 99.608C224.922 99.752 225.298 99.824 225.666 99.824C226.178 99.824 226.594 99.696 226.914 99.44C227.234 99.2 227.522 98.792 227.778 98.216L227.826 98.096L222.234 85.088H226.098L229.722 93.848L233.37 85.088H236.97ZM244.29 98.192C242.93 98.192 241.706 97.912 240.618 97.352C239.546 96.776 238.706 95.984 238.098 94.976C237.49 93.968 237.186 92.824 237.186 91.544C237.186 90.264 237.49 89.12 238.098 88.112C238.706 87.104 239.546 86.32 240.618 85.76C241.706 85.184 242.93 84.896 244.29 84.896C245.65 84.896 246.866 85.184 247.938 85.76C249.01 86.32 249.85 87.104 250.458 88.112C251.066 89.12 251.37 90.264 251.37 91.544C251.37 92.824 251.066 93.968 250.458 94.976C249.85 95.984 249.01 96.776 247.938 97.352C246.866 97.912 245.65 98.192 244.29 98.192ZM244.29 95.12C245.25 95.12 246.034 94.8 246.642 94.16C247.266 93.504 247.578 92.632 247.578 91.544C247.578 90.456 247.266 89.592 246.642 88.952C246.034 88.296 245.25 87.968 244.29 87.968C243.33 87.968 242.538 88.296 241.914 88.952C241.29 89.592 240.978 90.456 240.978 91.544C240.978 92.632 241.29 93.504 241.914 94.16C242.538 94.8 243.33 95.12 244.29 95.12ZM266.881 85.088V98H263.329V96.464C262.833 97.024 262.241 97.456 261.553 97.76C260.865 98.048 260.121 98.192 259.321 98.192C257.625 98.192 256.281 97.704 255.289 96.728C254.297 95.752 253.801 94.304 253.801 92.384V85.088H257.545V91.832C257.545 93.912 258.417 94.952 260.161 94.952C261.057 94.952 261.777 94.664 262.321 94.088C262.865 93.496 263.137 92.624 263.137 91.472V85.088H266.881ZM273.925 86.792C274.373 86.168 274.973 85.696 275.725 85.376C276.493 85.056 277.373 84.896 278.365 84.896V88.352C277.949 88.32 277.669 88.304 277.525 88.304C276.453 88.304 275.613 88.608 275.005 89.216C274.397 89.808 274.093 90.704 274.093 91.904V98H270.349V85.088H273.925V86.792ZM291.058 86.792C291.506 86.168 292.106 85.696 292.858 85.376C293.626 85.056 294.506 84.896 295.498 84.896V88.352C295.082 88.32 294.802 88.304 294.658 88.304C293.586 88.304 292.746 88.608 292.138 89.216C291.53 89.808 291.226 90.704 291.226 91.904V98H287.482V85.088H291.058V86.792ZM310.255 91.592C310.255 91.64 310.231 91.976 310.183 92.6H300.415C300.591 93.4 301.007 94.032 301.663 94.496C302.319 94.96 303.135 95.192 304.111 95.192C304.783 95.192 305.375 95.096 305.887 94.904C306.415 94.696 306.903 94.376 307.351 93.944L309.343 96.104C308.127 97.496 306.351 98.192 304.015 98.192C302.559 98.192 301.271 97.912 300.151 97.352C299.031 96.776 298.167 95.984 297.559 94.976C296.951 93.968 296.647 92.824 296.647 91.544C296.647 90.28 296.943 89.144 297.535 88.136C298.143 87.112 298.967 86.32 300.007 85.76C301.063 85.184 302.239 84.896 303.535 84.896C304.799 84.896 305.943 85.168 306.967 85.712C307.991 86.256 308.791 87.04 309.367 88.064C309.959 89.072 310.255 90.248 310.255 91.592ZM303.559 87.728C302.711 87.728 301.999 87.968 301.423 88.448C300.847 88.928 300.495 89.584 300.367 90.416H306.727C306.599 89.6 306.247 88.952 305.671 88.472C305.095 87.976 304.391 87.728 303.559 87.728ZM318.988 98.192C317.612 98.192 316.372 97.912 315.268 97.352C314.18 96.776 313.324 95.984 312.7 94.976C312.092 93.968 311.788 92.824 311.788 91.544C311.788 90.264 312.092 89.12 312.7 88.112C313.324 87.104 314.18 86.32 315.268 85.76C316.372 85.184 317.612 84.896 318.988 84.896C320.348 84.896 321.532 85.184 322.54 85.76C323.564 86.32 324.308 87.128 324.772 88.184L321.868 89.744C321.196 88.56 320.228 87.968 318.964 87.968C317.988 87.968 317.18 88.288 316.54 88.928C315.9 89.568 315.58 90.44 315.58 91.544C315.58 92.648 315.9 93.52 316.54 94.16C317.18 94.8 317.988 95.12 318.964 95.12C320.244 95.12 321.212 94.528 321.868 93.344L324.772 94.928C324.308 95.952 323.564 96.752 322.54 97.328C321.532 97.904 320.348 98.192 318.988 98.192ZM339.411 91.592C339.411 91.64 339.387 91.976 339.339 92.6H329.571C329.747 93.4 330.163 94.032 330.819 94.496C331.475 94.96 332.291 95.192 333.267 95.192C333.939 95.192 334.531 95.096 335.043 94.904C335.571 94.696 336.059 94.376 336.507 93.944L338.499 96.104C337.283 97.496 335.507 98.192 333.171 98.192C331.715 98.192 330.427 97.912 329.307 97.352C328.187 96.776 327.323 95.984 326.715 94.976C326.107 93.968 325.803 92.824 325.803 91.544C325.803 90.28 326.099 89.144 326.691 88.136C327.299 87.112 328.123 86.32 329.163 85.76C330.219 85.184 331.395 84.896 332.691 84.896C333.955 84.896 335.099 85.168 336.123 85.712C337.147 86.256 337.947 87.04 338.523 88.064C339.115 89.072 339.411 90.248 339.411 91.592ZM332.715 87.728C331.867 87.728 331.155 87.968 330.579 88.448C330.003 88.928 329.651 89.584 329.523 90.416H335.883C335.755 89.6 335.403 88.952 334.827 88.472C334.251 87.976 333.547 87.728 332.715 87.728ZM341.904 85.088H345.648V98H341.904V85.088ZM343.776 83.288C343.088 83.288 342.528 83.088 342.096 82.688C341.664 82.288 341.448 81.792 341.448 81.2C341.448 80.608 341.664 80.112 342.096 79.712C342.528 79.312 343.088 79.112 343.776 79.112C344.464 79.112 345.024 79.304 345.456 79.688C345.888 80.072 346.104 80.552 346.104 81.128C346.104 81.752 345.888 82.272 345.456 82.688C345.024 83.088 344.464 83.288 343.776 83.288ZM356.755 84.896C357.955 84.896 359.043 85.176 360.019 85.736C361.011 86.28 361.787 87.056 362.347 88.064C362.907 89.056 363.187 90.216 363.187 91.544C363.187 92.872 362.907 94.04 362.347 95.048C361.787 96.04 361.011 96.816 360.019 97.376C359.043 97.92 357.955 98.192 356.755 98.192C355.107 98.192 353.811 97.672 352.867 96.632V102.656H349.123V85.088H352.699V86.576C353.627 85.456 354.979 84.896 356.755 84.896ZM356.107 95.12C357.067 95.12 357.851 94.8 358.459 94.16C359.083 93.504 359.395 92.632 359.395 91.544C359.395 90.456 359.083 89.592 358.459 88.952C357.851 88.296 357.067 87.968 356.107 87.968C355.147 87.968 354.355 88.296 353.731 88.952C353.123 89.592 352.819 90.456 352.819 91.544C352.819 92.632 353.123 93.504 353.731 94.16C354.355 94.8 355.147 95.12 356.107 95.12ZM374.021 97.376C373.653 97.648 373.197 97.856 372.653 98C372.125 98.128 371.565 98.192 370.973 98.192C369.437 98.192 368.245 97.8 367.397 97.016C366.565 96.232 366.149 95.08 366.149 93.56V88.256H364.157V85.376H366.149V82.232H369.893V85.376H373.109V88.256H369.893V93.512C369.893 94.056 370.029 94.48 370.301 94.784C370.589 95.072 370.989 95.216 371.501 95.216C372.093 95.216 372.597 95.056 373.013 94.736L374.021 97.376ZM391.247 97.376C390.879 97.648 390.423 97.856 389.879 98C389.351 98.128 388.791 98.192 388.199 98.192C386.663 98.192 385.471 97.8 384.623 97.016C383.791 96.232 383.375 95.08 383.375 93.56V88.256H381.383V85.376H383.375V82.232H387.119V85.376H390.335V88.256H387.119V93.512C387.119 94.056 387.255 94.48 387.527 94.784C387.815 95.072 388.215 95.216 388.727 95.216C389.319 95.216 389.823 95.056 390.239 94.736L391.247 97.376ZM399.095 98.192C397.735 98.192 396.511 97.912 395.423 97.352C394.351 96.776 393.511 95.984 392.903 94.976C392.295 93.968 391.991 92.824 391.991 91.544C391.991 90.264 392.295 89.12 392.903 88.112C393.511 87.104 394.351 86.32 395.423 85.76C396.511 85.184 397.735 84.896 399.095 84.896C400.455 84.896 401.671 85.184 402.743 85.76C403.815 86.32 404.655 87.104 405.263 88.112C405.871 89.12 406.175 90.264 406.175 91.544C406.175 92.824 405.871 93.968 405.263 94.976C404.655 95.984 403.815 96.776 402.743 97.352C401.671 97.912 400.455 98.192 399.095 98.192ZM399.095 95.12C400.055 95.12 400.839 94.8 401.447 94.16C402.071 93.504 402.383 92.632 402.383 91.544C402.383 90.456 402.071 89.592 401.447 88.952C400.839 88.296 400.055 87.968 399.095 87.968C398.135 87.968 397.343 88.296 396.719 88.952C396.095 89.592 395.783 90.456 395.783 91.544C395.783 92.632 396.095 93.504 396.719 94.16C397.343 94.8 398.135 95.12 399.095 95.12ZM423.322 84.896C424.922 84.896 426.21 85.376 427.186 86.336C428.178 87.296 428.674 88.72 428.674 90.608V98H424.93V91.184C424.93 90.16 424.706 89.4 424.258 88.904C423.81 88.392 423.162 88.136 422.314 88.136C421.37 88.136 420.618 88.432 420.058 89.024C419.498 89.6 419.218 90.464 419.218 91.616V98H415.474V80.192H419.218V86.432C419.714 85.936 420.314 85.56 421.018 85.304C421.722 85.032 422.49 84.896 423.322 84.896ZM444.856 91.592C444.856 91.64 444.832 91.976 444.784 92.6H435.016C435.192 93.4 435.608 94.032 436.264 94.496C436.92 94.96 437.736 95.192 438.712 95.192C439.384 95.192 439.976 95.096 440.488 94.904C441.016 94.696 441.504 94.376 441.952 93.944L443.944 96.104C442.728 97.496 440.952 98.192 438.616 98.192C437.16 98.192 435.872 97.912 434.752 97.352C433.632 96.776 432.768 95.984 432.16 94.976C431.552 93.968 431.248 92.824 431.248 91.544C431.248 90.28 431.544 89.144 432.136 88.136C432.744 87.112 433.568 86.32 434.608 85.76C435.664 85.184 436.84 84.896 438.136 84.896C439.4 84.896 440.544 85.168 441.568 85.712C442.592 86.256 443.392 87.04 443.968 88.064C444.56 89.072 444.856 90.248 444.856 91.592ZM438.16 87.728C437.312 87.728 436.6 87.968 436.024 88.448C435.448 88.928 435.096 89.584 434.968 90.416H441.328C441.2 89.6 440.848 88.952 440.272 88.472C439.696 87.976 438.992 87.728 438.16 87.728ZM447.349 80.192H451.093V98H447.349V80.192ZM462.2 84.896C463.4 84.896 464.488 85.176 465.464 85.736C466.456 86.28 467.232 87.056 467.792 88.064C468.352 89.056 468.632 90.216 468.632 91.544C468.632 92.872 468.352 94.04 467.792 95.048C467.232 96.04 466.456 96.816 465.464 97.376C464.488 97.92 463.4 98.192 462.2 98.192C460.552 98.192 459.256 97.672 458.312 96.632V102.656H454.568V85.088H458.144V86.576C459.072 85.456 460.424 84.896 462.2 84.896ZM461.552 95.12C462.512 95.12 463.296 94.8 463.904 94.16C464.528 93.504 464.84 92.632 464.84 91.544C464.84 90.456 464.528 89.592 463.904 88.952C463.296 88.296 462.512 87.968 461.552 87.968C460.592 87.968 459.8 88.296 459.176 88.952C458.568 89.592 458.264 90.456 458.264 91.544C458.264 92.632 458.568 93.504 459.176 94.16C459.8 94.8 460.592 95.12 461.552 95.12ZM490.943 85.088V98H487.391V96.464C486.895 97.024 486.303 97.456 485.615 97.76C484.927 98.048 484.183 98.192 483.383 98.192C481.687 98.192 480.343 97.704 479.351 96.728C478.359 95.752 477.863 94.304 477.863 92.384V85.088H481.607V91.832C481.607 93.912 482.479 94.952 484.223 94.952C485.119 94.952 485.839 94.664 486.383 94.088C486.927 93.496 487.199 92.624 487.199 91.472V85.088H490.943ZM498.756 98.192C497.684 98.192 496.636 98.064 495.612 97.808C494.588 97.536 493.772 97.2 493.164 96.8L494.412 94.112C494.988 94.48 495.684 94.784 496.5 95.024C497.316 95.248 498.116 95.36 498.9 95.36C500.484 95.36 501.276 94.968 501.276 94.184C501.276 93.816 501.06 93.552 500.628 93.392C500.196 93.232 499.532 93.096 498.636 92.984C497.58 92.824 496.708 92.64 496.02 92.432C495.332 92.224 494.732 91.856 494.22 91.328C493.724 90.8 493.476 90.048 493.476 89.072C493.476 88.256 493.708 87.536 494.172 86.912C494.652 86.272 495.34 85.776 496.236 85.424C497.148 85.072 498.22 84.896 499.452 84.896C500.364 84.896 501.268 85 502.164 85.208C503.076 85.4 503.828 85.672 504.42 86.024L503.172 88.688C502.036 88.048 500.796 87.728 499.452 87.728C498.652 87.728 498.052 87.84 497.652 88.064C497.252 88.288 497.052 88.576 497.052 88.928C497.052 89.328 497.268 89.608 497.7 89.768C498.132 89.928 498.82 90.08 499.764 90.224C500.82 90.4 501.684 90.592 502.356 90.8C503.028 90.992 503.612 91.352 504.108 91.88C504.604 92.408 504.852 93.144 504.852 94.088C504.852 94.888 504.612 95.6 504.132 96.224C503.652 96.848 502.948 97.336 502.02 97.688C501.108 98.024 500.02 98.192 498.756 98.192ZM518.062 85.376H521.374V88.256H518.158V98H514.414V88.256H512.422V85.376H514.414V84.8C514.414 83.328 514.846 82.16 515.71 81.296C516.59 80.432 517.822 80 519.406 80C519.966 80 520.494 80.064 520.99 80.192C521.502 80.304 521.926 80.472 522.262 80.696L521.278 83.408C520.846 83.104 520.342 82.952 519.766 82.952C518.63 82.952 518.062 83.576 518.062 84.824V85.376ZM525.166 85.088H528.91V98H525.166V85.088ZM527.038 83.288C526.35 83.288 525.79 83.088 525.358 82.688C524.926 82.288 524.71 81.792 524.71 81.2C524.71 80.608 524.926 80.112 525.358 79.712C525.79 79.312 526.35 79.112 527.038 79.112C527.726 79.112 528.286 79.304 528.718 79.688C529.15 80.072 529.366 80.552 529.366 81.128C529.366 81.752 529.15 82.272 528.718 82.688C528.286 83.088 527.726 83.288 527.038 83.288ZM532.38 80.192H536.124V98H532.38V80.192ZM539.599 80.192H543.343V98H539.599V80.192ZM553.615 85.088H557.359V98H553.615V85.088ZM555.487 83.288C554.799 83.288 554.239 83.088 553.807 82.688C553.375 82.288 553.159 81.792 553.159 81.2C553.159 80.608 553.375 80.112 553.807 79.712C554.239 79.312 554.799 79.112 555.487 79.112C556.175 79.112 556.735 79.304 557.167 79.688C557.599 80.072 557.815 80.552 557.815 81.128C557.815 81.752 557.599 82.272 557.167 82.688C556.735 83.088 556.175 83.288 555.487 83.288ZM568.681 84.896C570.281 84.896 571.569 85.376 572.545 86.336C573.537 87.296 574.033 88.72 574.033 90.608V98H570.289V91.184C570.289 90.16 570.065 89.4 569.617 88.904C569.169 88.392 568.521 88.136 567.673 88.136C566.729 88.136 565.977 88.432 565.417 89.024C564.857 89.6 564.577 90.464 564.577 91.616V98H560.833V85.088H564.409V86.6C564.905 86.056 565.521 85.64 566.257 85.352C566.993 85.048 567.801 84.896 568.681 84.896ZM592.552 97.376C592.184 97.648 591.728 97.856 591.184 98C590.656 98.128 590.096 98.192 589.504 98.192C587.968 98.192 586.776 97.8 585.928 97.016C585.096 96.232 584.68 95.08 584.68 93.56V88.256H582.688V85.376H584.68V82.232H588.424V85.376H591.64V88.256H588.424V93.512C588.424 94.056 588.56 94.48 588.832 94.784C589.12 95.072 589.52 95.216 590.032 95.216C590.624 95.216 591.128 95.056 591.544 94.736L592.552 97.376ZM602.502 84.896C604.102 84.896 605.39 85.376 606.366 86.336C607.358 87.296 607.854 88.72 607.854 90.608V98H604.11V91.184C604.11 90.16 603.886 89.4 603.438 88.904C602.99 88.392 602.342 88.136 601.494 88.136C600.55 88.136 599.798 88.432 599.238 89.024C598.678 89.6 598.398 90.464 598.398 91.616V98H594.654V80.192H598.398V86.432C598.894 85.936 599.494 85.56 600.198 85.304C600.902 85.032 601.67 84.896 602.502 84.896ZM624.036 91.592C624.036 91.64 624.012 91.976 623.964 92.6H614.196C614.372 93.4 614.788 94.032 615.444 94.496C616.1 94.96 616.916 95.192 617.892 95.192C618.564 95.192 619.156 95.096 619.668 94.904C620.196 94.696 620.684 94.376 621.132 93.944L623.124 96.104C621.908 97.496 620.132 98.192 617.796 98.192C616.34 98.192 615.052 97.912 613.932 97.352C612.812 96.776 611.948 95.984 611.34 94.976C610.732 93.968 610.428 92.824 610.428 91.544C610.428 90.28 610.724 89.144 611.316 88.136C611.924 87.112 612.748 86.32 613.788 85.76C614.844 85.184 616.02 84.896 617.316 84.896C618.58 84.896 619.724 85.168 620.748 85.712C621.772 86.256 622.572 87.04 623.148 88.064C623.74 89.072 624.036 90.248 624.036 91.592ZM617.34 87.728C616.492 87.728 615.78 87.968 615.204 88.448C614.628 88.928 614.276 89.584 614.148 90.416H620.508C620.38 89.6 620.028 88.952 619.452 88.472C618.876 87.976 618.172 87.728 617.34 87.728ZM633.326 85.088H637.07V98H633.326V85.088ZM635.198 83.288C634.51 83.288 633.95 83.088 633.518 82.688C633.086 82.288 632.87 81.792 632.87 81.2C632.87 80.608 633.086 80.112 633.518 79.712C633.95 79.312 634.51 79.112 635.198 79.112C635.886 79.112 636.446 79.304 636.878 79.688C637.31 80.072 637.526 80.552 637.526 81.128C637.526 81.752 637.31 82.272 636.878 82.688C636.446 83.088 635.886 83.288 635.198 83.288ZM648.872 97.376C648.504 97.648 648.048 97.856 647.504 98C646.976 98.128 646.416 98.192 645.824 98.192C644.288 98.192 643.096 97.8 642.248 97.016C641.416 96.232 641 95.08 641 93.56V88.256H639.008V85.376H641V82.232H644.744V85.376H647.96V88.256H644.744V93.512C644.744 94.056 644.88 94.48 645.152 94.784C645.44 95.072 645.84 95.216 646.352 95.216C646.944 95.216 647.448 95.056 647.864 94.736L648.872 97.376ZM663.224 91.592C663.224 91.64 663.2 91.976 663.152 92.6H653.384C653.56 93.4 653.976 94.032 654.632 94.496C655.288 94.96 656.104 95.192 657.08 95.192C657.752 95.192 658.344 95.096 658.856 94.904C659.384 94.696 659.872 94.376 660.32 93.944L662.312 96.104C661.096 97.496 659.32 98.192 656.984 98.192C655.528 98.192 654.24 97.912 653.12 97.352C652 96.776 651.136 95.984 650.528 94.976C649.92 93.968 649.616 92.824 649.616 91.544C649.616 90.28 649.912 89.144 650.504 88.136C651.112 87.112 651.936 86.32 652.976 85.76C654.032 85.184 655.208 84.896 656.504 84.896C657.768 84.896 658.912 85.168 659.936 85.712C660.96 86.256 661.76 87.04 662.336 88.064C662.928 89.072 663.224 90.248 663.224 91.592ZM656.528 87.728C655.68 87.728 654.968 87.968 654.392 88.448C653.816 88.928 653.464 89.584 653.336 90.416H659.696C659.568 89.6 659.216 88.952 658.64 88.472C658.064 87.976 657.36 87.728 656.528 87.728ZM682.252 84.896C683.868 84.896 685.148 85.376 686.092 86.336C687.052 87.28 687.532 88.704 687.532 90.608V98H683.788V91.184C683.788 90.16 683.572 89.4 683.14 88.904C682.724 88.392 682.124 88.136 681.34 88.136C680.46 88.136 679.764 88.424 679.252 89C678.74 89.56 678.484 90.4 678.484 91.52V98H674.74V91.184C674.74 89.152 673.924 88.136 672.292 88.136C671.428 88.136 670.74 88.424 670.228 89C669.716 89.56 669.46 90.4 669.46 91.52V98H665.716V85.088H669.292V86.576C669.772 86.032 670.356 85.616 671.044 85.328C671.748 85.04 672.516 84.896 673.348 84.896C674.26 84.896 675.084 85.08 675.82 85.448C676.556 85.8 677.148 86.32 677.596 87.008C678.124 86.336 678.788 85.816 679.588 85.448C680.404 85.08 681.292 84.896 682.252 84.896ZM695.232 98.192C694.16 98.192 693.112 98.064 692.088 97.808C691.064 97.536 690.248 97.2 689.64 96.8L690.888 94.112C691.464 94.48 692.16 94.784 692.976 95.024C693.792 95.248 694.592 95.36 695.376 95.36C696.96 95.36 697.752 94.968 697.752 94.184C697.752 93.816 697.536 93.552 697.104 93.392C696.672 93.232 696.008 93.096 695.112 92.984C694.056 92.824 693.184 92.64 692.496 92.432C691.808 92.224 691.208 91.856 690.696 91.328C690.2 90.8 689.952 90.048 689.952 89.072C689.952 88.256 690.184 87.536 690.648 86.912C691.128 86.272 691.816 85.776 692.712 85.424C693.624 85.072 694.696 84.896 695.928 84.896C696.84 84.896 697.744 85 698.64 85.208C699.552 85.4 700.304 85.672 700.896 86.024L699.648 88.688C698.512 88.048 697.272 87.728 695.928 87.728C695.128 87.728 694.528 87.84 694.128 88.064C693.728 88.288 693.528 88.576 693.528 88.928C693.528 89.328 693.744 89.608 694.176 89.768C694.608 89.928 695.296 90.08 696.24 90.224C697.296 90.4 698.16 90.592 698.832 90.8C699.504 90.992 700.088 91.352 700.584 91.88C701.08 92.408 701.328 93.144 701.328 94.088C701.328 94.888 701.088 95.6 700.608 96.224C700.128 96.848 699.424 97.336 698.496 97.688C697.584 98.024 696.496 98.192 695.232 98.192ZM714.539 85.376H717.851V88.256H714.635V98H710.891V88.256H708.899V85.376H710.891V84.8C710.891 83.328 711.323 82.16 712.187 81.296C713.067 80.432 714.299 80 715.883 80C716.443 80 716.971 80.064 717.467 80.192C717.979 80.304 718.403 80.472 718.739 80.696L717.755 83.408C717.323 83.104 716.819 82.952 716.243 82.952C715.107 82.952 714.539 83.576 714.539 84.824V85.376ZM725.696 98.192C724.336 98.192 723.112 97.912 722.024 97.352C720.952 96.776 720.112 95.984 719.504 94.976C718.896 93.968 718.592 92.824 718.592 91.544C718.592 90.264 718.896 89.12 719.504 88.112C720.112 87.104 720.952 86.32 722.024 85.76C723.112 85.184 724.336 84.896 725.696 84.896C727.056 84.896 728.272 85.184 729.344 85.76C730.416 86.32 731.256 87.104 731.864 88.112C732.472 89.12 732.776 90.264 732.776 91.544C732.776 92.824 732.472 93.968 731.864 94.976C731.256 95.984 730.416 96.776 729.344 97.352C728.272 97.912 727.056 98.192 725.696 98.192ZM725.696 95.12C726.656 95.12 727.44 94.8 728.048 94.16C728.672 93.504 728.984 92.632 728.984 91.544C728.984 90.456 728.672 89.592 728.048 88.952C727.44 88.296 726.656 87.968 725.696 87.968C724.736 87.968 723.944 88.296 723.32 88.952C722.696 89.592 722.384 90.456 722.384 91.544C722.384 92.632 722.696 93.504 723.32 94.16C723.944 94.8 724.736 95.12 725.696 95.12ZM738.855 86.792C739.303 86.168 739.903 85.696 740.655 85.376C741.423 85.056 742.303 84.896 743.295 84.896V88.352C742.879 88.32 742.599 88.304 742.455 88.304C741.383 88.304 740.543 88.608 739.935 89.216C739.327 89.808 739.023 90.704 739.023 91.904V98H735.279V85.088H738.855V86.792ZM765.228 85.088L759.396 98.792C758.804 100.28 758.068 101.328 757.188 101.936C756.324 102.544 755.276 102.848 754.044 102.848C753.372 102.848 752.708 102.744 752.052 102.536C751.396 102.328 750.86 102.04 750.444 101.672L751.812 99.008C752.1 99.264 752.428 99.464 752.796 99.608C753.18 99.752 753.556 99.824 753.924 99.824C754.436 99.824 754.852 99.696 755.172 99.44C755.492 99.2 755.78 98.792 756.036 98.216L756.084 98.096L750.492 85.088H754.356L757.98 93.848L761.628 85.088H765.228ZM772.548 98.192C771.188 98.192 769.964 97.912 768.876 97.352C767.804 96.776 766.964 95.984 766.356 94.976C765.748 93.968 765.444 92.824 765.444 91.544C765.444 90.264 765.748 89.12 766.356 88.112C766.964 87.104 767.804 86.32 768.876 85.76C769.964 85.184 771.188 84.896 772.548 84.896C773.908 84.896 775.124 85.184 776.196 85.76C777.268 86.32 778.108 87.104 778.716 88.112C779.324 89.12 779.628 90.264 779.628 91.544C779.628 92.824 779.324 93.968 778.716 94.976C778.108 95.984 777.268 96.776 776.196 97.352C775.124 97.912 773.908 98.192 772.548 98.192ZM772.548 95.12C773.508 95.12 774.292 94.8 774.9 94.16C775.524 93.504 775.836 92.632 775.836 91.544C775.836 90.456 775.524 89.592 774.9 88.952C774.292 88.296 773.508 87.968 772.548 87.968C771.588 87.968 770.796 88.296 770.172 88.952C769.548 89.592 769.236 90.456 769.236 91.544C769.236 92.632 769.548 93.504 770.172 94.16C770.796 94.8 771.588 95.12 772.548 95.12ZM795.138 85.088V98H791.586V96.464C791.09 97.024 790.498 97.456 789.81 97.76C789.122 98.048 788.378 98.192 787.578 98.192C785.882 98.192 784.538 97.704 783.546 96.728C782.554 95.752 782.058 94.304 782.058 92.384V85.088H785.802V91.832C785.802 93.912 786.674 94.952 788.418 94.952C789.314 94.952 790.034 94.664 790.578 94.088C791.122 93.496 791.394 92.624 791.394 91.472V85.088H795.138Z" fill="#BF202F"/>
<path d="M401.828 1.17157C400.266 -0.390526 397.734 -0.390526 396.172 1.17157L370.716 26.6274C369.154 28.1895 369.154 30.7222 370.716 32.2843C372.278 33.8464 374.81 33.8464 376.373 32.2843L399 9.65685L421.627 32.2843C423.19 33.8464 425.722 33.8464 427.284 32.2843C428.846 30.7222 428.846 28.1895 427.284 26.6274L401.828 1.17157ZM403 54V4H395V54H403Z" fill="#BF202F"/>
</svg>
