<svg width="33" height="33" viewBox="0 0 33 33" fill="none" xmlns="http://www.w3.org/2000/svg">
<circle cx="16.5" cy="16.5" r="16.5" fill="#BF202F"/>
<path d="M18.516 15.21C20.1107 15.47 21.3327 16.068 22.182 17.004C23.0313 17.9227 23.456 19.0667 23.456 20.436C23.456 21.4933 23.1787 22.4727 22.624 23.374C22.0693 24.258 21.22 24.9687 20.076 25.506C18.9493 26.0433 17.5627 26.312 15.916 26.312C14.6333 26.312 13.368 26.1473 12.12 25.818C10.8893 25.4713 9.84067 24.986 8.974 24.362L10.612 21.138C11.3053 21.658 12.1027 22.0653 13.004 22.36C13.9227 22.6373 14.8587 22.776 15.812 22.776C16.8693 22.776 17.7013 22.5767 18.308 22.178C18.9147 21.762 19.218 21.1813 19.218 20.436C19.218 18.9453 18.0827 18.2 15.812 18.2H13.888V15.418L17.632 11.18H9.884V7.8H22.624V10.53L18.516 15.21Z" fill="white"/>
</svg>
